<svg width="24" height="24" viewBox="0 0 24 24" fill="none" xmlns="http://www.w3.org/2000/svg">
<g transform="translate(-2 -2)">
  <path d="M14 17.5C15.933 17.5 17.5 15.933 17.5 14C17.5 12.067 15.933 10.5 14 10.5C12.067 10.5 10.5 12.067 10.5 14C10.5 15.933 12.067 17.5 14 17.5Z" stroke="currentColor" stroke-width="1.5" stroke-linecap="round" stroke-linejoin="round"/>
  <path d="M14 10.5001V4.66675C14.9283 4.66675 15.8185 5.0355 16.4749 5.69187C17.1313 6.34825 17.5 7.23849 17.5 8.16675C17.5 9.91675 15.75 10.5001 14 10.5001ZM14 10.5001C14 9.57182 13.6313 8.68159 12.9749 8.02521C12.3185 7.36883 11.4283 7.00008 10.5 7.00008V4.66675C11.4283 4.66675 12.3185 5.0355 12.9749 5.69187C13.6313 6.34825 14 7.23849 14 8.16675" stroke="currentColor" stroke-width="1.5" stroke-linecap="round" stroke-linejoin="round"/>
  <path d="M14 18.6667V25.6667" stroke="currentColor" stroke-width="1.5" stroke-linecap="round" stroke-linejoin="round"/>
  <path d="M14 22.1667C11.6667 22.1667 9.33333 21.0001 9.33333 18.6667C11.6667 18.6667 14 19.8334 14 22.1667ZM14 22.1667C16.3333 22.1667 18.6667 21.0001 18.6667 18.6667C16.3333 18.6667 14 19.8334 14 22.1667Z" stroke="currentColor" stroke-width="1.5" stroke-linecap="round" stroke-linejoin="round"/>
</g>
</svg>
