<svg width="243" height="147" viewBox="0 0 243 147" fill="none" xmlns="http://www.w3.org/2000/svg" role="img" aria-label="Рай — ритуальная компания">
<g clip-path="url(#clip0_293_1074)">
<path d="M8.78039 117.512C7.90234 117.512 7.2438 117.171 6.80478 116.488C6.36575 115.805 6.14624 115.073 6.14624 114.293C6.2438 112.634 6.65844 111.707 7.39014 111.512C8.12185 111.317 8.97551 111.22 9.95112 111.22C13.0731 111.22 15.2682 110.659 16.5365 109.537C17.8048 108.415 18.6097 107 18.9511 105.293C19.2926 103.585 19.4633 101.805 19.4633 99.9512V41.8537C19.4633 40 19.2926 38.2195 18.9511 36.5122C18.6097 34.8049 17.8048 33.3902 16.5365 32.2683C15.2682 31.1463 13.0731 30.5854 9.95112 30.5854C8.97551 30.5854 8.12185 30.4878 7.39014 30.2927C6.65844 30.0976 6.2438 29.1707 6.14624 27.5122C6.14624 26.7317 6.36575 26 6.80478 25.3171C7.2438 24.6341 7.90234 24.2927 8.78039 24.2927C11.9023 24.3902 14.8779 24.4878 17.7072 24.5854C20.5365 24.6829 23.4145 24.7317 26.3414 24.7317H48.2926C50.1462 24.7317 52.5609 24.8781 55.5365 25.1707C58.5121 25.4634 61.6828 26.0488 65.0487 26.9268C68.4145 27.8049 71.6097 29.2195 74.634 31.1707C77.6584 33.122 80.1218 35.7073 82.0243 38.9268C83.9267 42.1463 84.8779 46.1951 84.8779 51.0732C84.8779 55.6585 83.8292 59.8049 81.7316 63.5122C79.634 67.2195 76.8536 70.3902 73.3901 73.0244C69.9267 75.6585 66.0243 77.6829 61.6828 79.0976C57.3414 80.5122 52.9267 81.2195 48.4389 81.2195C46.2926 81.2195 43.9511 81.0732 41.4145 80.7805C38.8779 80.4878 36.3414 79.8537 33.8048 78.8781V99.9512C33.9023 101.805 34.0975 103.585 34.3901 105.293C34.6828 107 35.4877 108.415 36.8048 109.537C38.1218 110.659 40.2926 111.22 43.317 111.22C44.3901 111.22 45.2682 111.317 45.9511 111.512C46.634 111.707 47.0243 112.634 47.1218 114.293C47.1218 115.073 46.9023 115.805 46.4633 116.488C46.0243 117.171 45.3658 117.512 44.4877 117.512C38.2438 117.22 32.1462 117.073 26.195 117.073C23.2682 117.073 20.4145 117.098 17.634 117.146C14.8536 117.195 11.9023 117.317 8.78039 117.512ZM44.195 74.6341C46.4389 74.6341 48.9511 74.2683 51.7316 73.5366C54.5121 72.8049 57.195 71.5854 59.7804 69.8781C62.3658 68.1707 64.4877 65.8293 66.1462 62.8537C67.8048 59.8781 68.634 56.0976 68.634 51.5122C68.634 46.5366 67.6584 42.6098 65.7072 39.7317C63.756 36.8537 61.3414 34.7317 58.4633 33.3659C55.5853 32 52.7316 31.122 49.9023 30.7317C47.0731 30.3415 44.7804 30.1463 43.0243 30.1463C40.6828 30.1463 38.8292 30.3902 37.4633 30.8781C36.0975 31.3659 35.1462 32.4146 34.6097 34.0244C34.0731 35.6341 33.8048 38.0976 33.8048 41.4146V73.0244C34.7804 73.4146 36.195 73.7805 38.0487 74.122C39.9023 74.4634 41.9511 74.6341 44.195 74.6341Z" fill="#F5F1EA"/>
<path d="M107.854 118.829C101.902 118.829 97.1463 117.122 93.5854 113.707C90.0244 110.293 88.2439 106.195 88.2439 101.415C88.2439 96.439 89.5366 92.5366 92.1219 89.7073C94.7073 86.878 98.1219 84.7805 102.366 83.4146C106.61 82.0488 111.244 81.122 116.268 80.6341C121.293 80.1463 126.195 79.7561 130.976 79.4634V67.9024C130.976 63.3171 129.829 59.7317 127.537 57.1463C125.244 54.561 121.366 53.2683 115.902 53.2683C113.171 53.2683 110.61 54.1463 108.22 55.9024C105.829 57.6585 104.634 60.1951 104.634 63.5122C104.634 65.0732 105.024 66.3902 105.805 67.4634C106.585 68.5366 107.366 69.3659 108.146 69.9512C108.927 70.5366 109.317 70.9268 109.317 71.122C109.317 71.5122 108.756 72.2195 107.634 73.2439C106.512 74.2683 104.976 74.7805 103.024 74.7805C100 74.7805 97.6585 73.6585 96 71.4146C94.3415 69.1707 93.5122 66.6829 93.5122 63.9512C93.5122 60.2439 94.6585 57.3171 96.9512 55.1707C99.2439 53.0244 102.195 51.4634 105.805 50.4878C109.415 49.5122 113.073 49.0244 116.78 49.0244C121.171 49.0244 125.439 49.561 129.585 50.6341C133.732 51.7073 137.146 53.7561 139.829 56.7805C142.512 59.8049 143.854 64.3415 143.854 70.3902V104.488C143.951 105.463 144.195 106.634 144.585 108C144.976 109.366 145.732 110.561 146.854 111.585C147.976 112.61 149.512 113.122 151.463 113.122C152.146 113.122 152.683 113.244 153.073 113.488C153.463 113.732 153.659 114.39 153.659 115.463C153.659 116.341 153.171 117.024 152.195 117.512C151.22 118 150.098 118.341 148.829 118.537C147.561 118.732 146.488 118.829 145.61 118.829C142 118.829 138.78 117.78 135.951 115.683C133.122 113.585 131.463 110.683 130.976 106.976C128.829 110.878 125.634 113.829 121.39 115.829C117.146 117.829 112.634 118.829 107.854 118.829ZM112.537 110.927C115.854 110.927 118.902 110.098 121.683 108.439C124.463 106.78 126.707 104.512 128.415 101.634C130.122 98.7561 130.976 95.561 130.976 92.0488V83.7073C120.927 84.3902 113.756 86 109.463 88.5366C105.171 91.0732 103.024 95.2195 103.024 100.976C103.024 107.61 106.195 110.927 112.537 110.927Z" fill="#F5F1EA"/>
<path d="M161.561 117.512C160.78 117.512 160.195 117.195 159.805 116.561C159.415 115.927 159.219 115.268 159.219 114.585C159.317 113.122 159.659 112.317 160.244 112.171C160.829 112.024 161.61 111.951 162.585 111.951C165.317 111.951 167.195 111.488 168.219 110.561C169.244 109.634 169.805 108.39 169.902 106.829C170 105.268 170.049 103.659 170.049 102V65.8537C170.049 64.0976 170 62.4634 169.902 60.9512C169.805 59.439 169.244 58.2195 168.219 57.2927C167.195 56.3659 165.317 55.9024 162.585 55.9024C161.61 55.9024 160.829 55.8293 160.244 55.6829C159.659 55.5366 159.317 54.7317 159.219 53.2683C159.219 52.4878 159.415 51.8049 159.805 51.2195C160.195 50.6341 160.78 50.3415 161.561 50.3415C164.39 50.439 166.976 50.5366 169.317 50.6341C171.659 50.7317 174.146 50.7805 176.78 50.7805C179.317 50.7805 181.61 50.7317 183.659 50.6341C185.707 50.5366 188.098 50.439 190.829 50.3415C191.61 50.3415 192.195 50.6341 192.585 51.2195C192.976 51.8049 193.171 52.4878 193.171 53.2683C193.073 54.7317 192.707 55.5366 192.073 55.6829C191.439 55.8293 190.732 55.9024 189.951 55.9024C187.61 55.8049 186 56.1463 185.122 56.9268C184.244 57.7073 183.78 58.8537 183.732 60.3659C183.683 61.878 183.61 63.7073 183.512 65.8537V100.244L211.317 62.3415C215.219 57.4634 218.561 54.3415 221.341 52.9756C224.122 51.6098 226.585 50.8293 228.732 50.6341L235.171 50.3415C235.951 50.3415 236.537 50.6341 236.927 51.2195C237.317 51.8049 237.512 52.4878 237.512 53.2683C237.415 54.7317 237.049 55.5366 236.415 55.6829C235.78 55.8293 235.024 55.9024 234.146 55.9024C231.415 55.9024 229.537 56.3659 228.512 57.2927C227.488 58.2195 226.902 59.439 226.756 60.9512C226.61 62.4634 226.537 64.0976 226.537 65.8537V102C226.537 103.659 226.61 105.268 226.756 106.829C226.902 108.39 227.488 109.634 228.512 110.561C229.537 111.488 231.415 111.951 234.146 111.951C235.024 111.951 235.78 112.024 236.415 112.171C237.049 112.317 237.415 113.122 237.512 114.585C237.512 115.268 237.317 115.927 236.927 116.561C236.537 117.195 235.951 117.512 235.171 117.512C232.341 117.317 229.756 117.195 227.415 117.146C225.073 117.098 222.585 117.073 219.951 117.073C217.415 117.073 215.122 117.098 213.073 117.146C211.024 117.195 208.585 117.317 205.756 117.512C205.073 117.512 204.537 117.195 204.146 116.561C203.756 115.927 203.561 115.268 203.561 114.585C203.659 113.122 204 112.317 204.585 112.171C205.171 112.024 205.902 111.951 206.78 111.951C209.122 112.049 210.732 111.707 211.61 110.927C212.488 110.146 212.976 109 213.073 107.488C213.171 105.976 213.219 104.146 213.219 102V69.5122L185.268 107.122C182.439 110.732 179.537 113.268 176.561 114.732C173.585 116.195 170.976 117.024 168.732 117.22C167.561 117.317 166.39 117.39 165.219 117.439C164.049 117.488 162.829 117.512 161.561 117.512Z" fill="#F5F1EA"/>
<g clip-path="url(#clip1_293_1074)">
<path d="M184.56 33.6899C189.015 15.8672 204.61 4.72802 227.334 2.05461C221.319 24.7786 204.61 37.0317 184.56 33.6899Z" fill="#2E4A3B"/>
<path d="M185.744 31.6947C181.679 33.6418 177.461 35.3639 173.088 36.8608C172.654 37.1947 172.632 37.5957 173.023 38.0638C173.382 38.3114 173.751 38.3549 174.13 38.1942C178.285 36.8642 182.093 35.3601 185.552 33.6818L185.744 31.6947Z" fill="#2E4A3B"/>
</g>
<path d="M4.25959 143.043C4.17265 143.043 4.10502 143.01 4.05672 142.942C4.01808 142.874 3.99875 142.802 3.99875 142.725C4.00842 142.56 4.04706 142.469 4.11468 142.449C4.19197 142.43 4.27891 142.42 4.37552 142.42C4.68466 142.42 4.90202 142.367 5.02761 142.261C5.1532 142.145 5.23048 142.005 5.25946 141.841C5.29811 141.667 5.31743 141.488 5.31743 141.305V135.552C5.31743 135.368 5.29811 135.194 5.25946 135.03C5.23048 134.856 5.1532 134.716 5.02761 134.61C4.90202 134.494 4.68466 134.436 4.37552 134.436C4.27891 134.436 4.19197 134.426 4.11468 134.407C4.04706 134.388 4.00842 134.296 3.99875 134.132C3.99875 134.054 4.01808 133.982 4.05672 133.914C4.10502 133.847 4.17265 133.813 4.25959 133.813C4.56873 133.822 4.86338 133.832 5.14354 133.842C5.42369 133.851 5.70868 133.856 5.9985 133.856H8.17213C8.35569 133.856 8.59237 133.871 8.88219 133.9C9.18167 133.929 9.49564 133.987 9.8241 134.074C10.1622 134.161 10.481 134.301 10.7805 134.494C11.08 134.687 11.3215 134.943 11.505 135.262C11.6983 135.581 11.7949 135.982 11.7949 136.465C11.7949 136.919 11.6886 137.329 11.4761 137.696C11.2732 138.063 10.9979 138.377 10.6501 138.638C10.312 138.899 9.92553 139.102 9.49081 139.247C9.06574 139.382 8.63101 139.45 8.18663 139.45C7.97409 139.45 7.74224 139.435 7.49106 139.406C7.23989 139.377 6.98871 139.314 6.73753 139.218V141.305C6.7472 141.488 6.76652 141.667 6.7955 141.841C6.82448 142.005 6.90177 142.145 7.02735 142.261C7.1626 142.367 7.37996 142.42 7.67944 142.42C7.78571 142.42 7.87266 142.43 7.94028 142.449C8.0079 142.469 8.04655 142.56 8.05621 142.725C8.05621 142.802 8.03206 142.874 7.98375 142.942C7.94511 143.01 7.88232 143.043 7.79537 143.043C7.17709 143.014 6.5733 143 5.98401 143C5.69419 143 5.4092 143 5.12904 143C4.85855 143.01 4.56873 143.024 4.25959 143.043ZM7.76639 138.798C7.98858 138.798 8.23493 138.764 8.50542 138.696C8.78558 138.619 9.05125 138.498 9.30242 138.334C9.56326 138.16 9.77579 137.928 9.94002 137.638C10.1043 137.339 10.1864 136.962 10.1864 136.508C10.1864 136.015 10.0898 135.629 9.89655 135.349C9.70334 135.059 9.46182 134.846 9.17201 134.711C8.89185 134.576 8.61169 134.489 8.33153 134.45C8.05138 134.412 7.82435 134.392 7.65046 134.392C7.41861 134.392 7.23506 134.417 7.09981 134.465C6.96456 134.513 6.86795 134.619 6.80999 134.784C6.76169 134.938 6.73753 135.18 6.73753 135.508V138.638C6.83414 138.677 6.97422 138.716 7.15777 138.754C7.34132 138.783 7.5442 138.798 7.76639 138.798ZM15.6448 143.043C15.5482 143.034 15.4806 143 15.4419 142.942C15.4033 142.874 15.384 142.802 15.384 142.725C15.3936 142.56 15.4323 142.469 15.4999 142.449C15.5675 142.43 15.6496 142.42 15.7462 142.42C16.0554 142.42 16.2727 142.367 16.3983 142.261C16.5239 142.145 16.6012 142.005 16.6302 141.841C16.6688 141.667 16.6881 141.488 16.6881 141.305V135.552C16.6881 135.368 16.6688 135.194 16.6302 135.03C16.6012 134.856 16.5239 134.716 16.3983 134.61C16.2727 134.494 16.0554 134.436 15.7462 134.436C15.6496 134.436 15.5675 134.426 15.4999 134.407C15.4323 134.388 15.3936 134.296 15.384 134.132C15.384 134.054 15.4033 133.982 15.4419 133.914C15.4806 133.847 15.5482 133.813 15.6448 133.813C15.9539 133.822 16.2438 133.832 16.5143 133.842C16.7847 133.851 17.0649 133.856 17.3547 133.856C17.944 133.856 18.5478 133.842 19.1661 133.813C19.2627 133.813 19.3303 133.847 19.369 133.914C19.4076 133.982 19.4269 134.054 19.4269 134.132C19.4173 134.296 19.3786 134.388 19.311 134.407C19.253 134.426 19.1709 134.436 19.0647 134.436C18.7652 134.436 18.5478 134.494 18.4126 134.61C18.287 134.716 18.2097 134.856 18.1807 135.03C18.1517 135.194 18.1324 135.368 18.1227 135.552V140.681L22.2816 135.436C22.6487 134.982 22.9386 134.644 23.1511 134.421C23.3636 134.199 23.552 134.049 23.7162 133.972C23.8805 133.895 24.064 133.851 24.2669 133.842C24.4408 133.822 24.5809 133.813 24.6871 133.813C24.803 133.813 24.9093 133.813 25.0059 133.813C25.1122 133.813 25.1798 133.847 25.2088 133.914C25.2474 133.982 25.2668 134.054 25.2668 134.132C25.2571 134.296 25.2185 134.388 25.1508 134.407C25.0929 134.426 25.0108 134.436 24.9045 134.436C24.605 134.436 24.3876 134.494 24.2524 134.61C24.1268 134.716 24.0495 134.856 24.0205 135.03C23.9916 135.194 23.9722 135.368 23.9626 135.552V141.305C23.9722 141.488 23.9916 141.667 24.0205 141.841C24.0495 142.005 24.1268 142.145 24.2524 142.261C24.3876 142.367 24.605 142.42 24.9045 142.42C25.0108 142.42 25.0929 142.43 25.1508 142.449C25.2185 142.469 25.2571 142.56 25.2668 142.725C25.2668 142.802 25.2474 142.874 25.2088 142.942C25.1701 143.01 25.1025 143.043 25.0059 143.043C24.6968 143.024 24.407 143.01 24.1365 143C23.866 143 23.5858 143 23.296 143C22.726 143 22.1271 143.014 21.4991 143.043C21.4025 143.043 21.3349 143.01 21.2962 142.942C21.2576 142.874 21.2383 142.802 21.2383 142.725C21.2479 142.56 21.2866 142.469 21.3542 142.449C21.4218 142.43 21.504 142.42 21.6006 142.42C21.9097 142.42 22.1271 142.367 22.2526 142.261C22.3782 142.145 22.4555 142.005 22.4845 141.841C22.5231 141.667 22.5425 141.488 22.5425 141.305V136.189L18.3691 141.406C18.031 141.821 17.7556 142.145 17.5431 142.377C17.3402 142.599 17.1615 142.758 17.0069 142.855C16.8524 142.942 16.6785 142.995 16.4853 143.014C16.3404 143.024 16.1955 143.034 16.0505 143.043C15.9153 143.053 15.78 143.053 15.6448 143.043ZM31.0408 143.043C30.9442 143.043 30.8766 143.01 30.8379 142.942C30.7993 142.874 30.78 142.802 30.78 142.725C30.7896 142.56 30.8283 142.469 30.8959 142.449C30.9635 142.43 31.0456 142.42 31.1422 142.42C31.4514 142.42 31.6688 142.367 31.7943 142.261C31.9199 142.145 31.9972 142.005 32.0262 141.841C32.0648 141.667 32.0842 141.488 32.0842 141.305V134.392H31.0843C30.7558 134.402 30.4998 134.475 30.3163 134.61C30.1327 134.735 29.9975 134.938 29.9105 135.218C29.8236 135.489 29.7463 135.841 29.6787 136.276C29.669 136.363 29.6062 136.431 29.4903 136.479C29.384 136.518 29.2778 136.537 29.1715 136.537C29.1039 136.537 29.0266 136.513 28.9396 136.465C28.8623 136.416 28.8237 136.344 28.8237 136.247L28.8672 134.204C28.8672 134.069 28.9058 133.977 28.9831 133.929C29.0604 133.88 29.1522 133.856 29.2584 133.856H36.3445C36.4507 133.856 36.5377 133.88 36.6053 133.929C36.6826 133.977 36.7212 134.069 36.7212 134.204L36.7792 136.247C36.7792 136.344 36.7357 136.416 36.6488 136.465C36.5715 136.513 36.4942 136.537 36.4169 136.537C36.3203 136.537 36.2189 136.518 36.1126 136.479C36.0064 136.431 35.9436 136.363 35.9242 136.276C35.8566 135.841 35.7745 135.489 35.6779 135.218C35.591 134.938 35.4557 134.735 35.2722 134.61C35.0983 134.475 34.8423 134.402 34.5041 134.392H33.5188V141.305C33.5284 141.488 33.5477 141.667 33.5767 141.841C33.6057 142.005 33.683 142.145 33.8086 142.261C33.9438 142.367 34.1612 142.42 34.4607 142.42C34.5573 142.42 34.6394 142.43 34.707 142.449C34.7746 142.469 34.8133 142.56 34.8229 142.725C34.8229 142.802 34.8036 142.874 34.765 142.942C34.7263 143.01 34.6587 143.043 34.5621 143.043C34.253 143.024 33.9583 143.01 33.6782 143C33.4077 143 33.1323 143 32.8522 143C32.2725 143 31.6688 143.014 31.0408 143.043ZM42.4685 143.246C41.9275 143.246 41.4976 143.116 41.1788 142.855C40.8696 142.585 40.7199 142.251 40.7296 141.855C40.7392 141.498 40.8503 141.222 41.0629 141.029C41.2754 140.826 41.5169 140.725 41.7874 140.725C41.9806 140.725 42.1304 140.764 42.2366 140.841C42.3525 140.918 42.4105 140.981 42.4105 141.029C42.4105 141.068 42.367 141.126 42.2801 141.203C42.2028 141.271 42.1593 141.401 42.1497 141.594C42.14 141.807 42.1931 141.995 42.3091 142.16C42.4347 142.314 42.6279 142.391 42.8887 142.391C43.5263 142.391 44.0528 141.937 44.4682 141.029C44.2364 140.604 43.9852 140.136 43.7147 139.624C43.4539 139.102 43.193 138.585 42.9322 138.073C42.6713 137.551 42.4298 137.068 42.2076 136.624C41.9854 136.18 41.7971 135.817 41.6425 135.537C41.5169 135.296 41.4058 135.102 41.3092 134.958C41.2223 134.803 41.1208 134.682 41.0049 134.595C40.889 134.508 40.7247 134.446 40.5122 134.407C40.377 134.378 40.2803 134.354 40.2224 134.334C40.1741 134.315 40.1499 134.228 40.1499 134.074C40.1499 133.909 40.2079 133.818 40.3238 133.798C40.4397 133.779 40.575 133.774 40.7296 133.784C41.1836 133.793 41.5411 133.847 41.8019 133.943C42.0724 134.03 42.3042 134.18 42.4975 134.392C42.6907 134.605 42.8984 134.904 43.1206 135.291C43.2558 135.542 43.4056 135.851 43.5698 136.218C43.7437 136.585 43.9562 137.03 44.2074 137.551C44.4682 138.073 44.8015 138.696 45.2073 139.421H45.2507L47.1201 135.16C47.207 134.929 47.207 134.764 47.1201 134.668C47.0331 134.561 46.893 134.499 46.6998 134.479C46.5163 134.45 46.3134 134.436 46.0912 134.436C45.9946 134.436 45.9125 134.426 45.8449 134.407C45.7772 134.388 45.7386 134.296 45.7289 134.132C45.7289 134.054 45.7483 133.982 45.7869 133.914C45.8255 133.847 45.8883 133.813 45.9753 133.813C46.2844 133.822 46.5694 133.832 46.8302 133.842C47.0911 133.851 47.3664 133.856 47.6562 133.856C47.946 133.856 48.1779 133.851 48.3518 133.842C48.5353 133.832 48.7817 133.822 49.0908 133.813C49.1874 133.813 49.255 133.847 49.2937 133.914C49.3323 133.982 49.3517 134.054 49.3517 134.132C49.342 134.296 49.3034 134.388 49.2357 134.407C49.1778 134.426 49.0956 134.436 48.9894 134.436C48.7479 134.436 48.5643 134.47 48.4387 134.537C48.3131 134.605 48.2117 134.711 48.1344 134.856C48.0571 135.001 47.9605 135.189 47.8446 135.421L45.2217 141C44.874 141.725 44.4827 142.28 44.048 142.667C43.6229 143.053 43.0964 143.246 42.4685 143.246ZM51.9774 143.043C51.8808 143.043 51.8132 143.01 51.7746 142.942C51.7359 142.874 51.7166 142.802 51.7166 142.725C51.7263 142.56 51.7649 142.469 51.8325 142.449C51.9002 142.43 51.9823 142.42 52.0789 142.42C52.3397 142.42 52.5378 142.367 52.673 142.261C52.8083 142.155 52.9145 142.015 52.9918 141.841C53.0788 141.667 53.1609 141.488 53.2382 141.305L55.7741 135.305C55.8707 135.073 55.89 134.9 55.832 134.784C55.7741 134.658 55.6775 134.571 55.5422 134.523C55.407 134.465 55.2572 134.421 55.093 134.392C54.9481 134.363 54.8515 134.339 54.8032 134.32C54.7549 134.291 54.7307 134.204 54.7307 134.059C54.7307 133.895 54.7887 133.808 54.9046 133.798C55.0205 133.779 55.1558 133.769 55.3104 133.769C55.7064 133.769 56.0446 133.808 56.3247 133.885C56.6049 133.963 56.8464 134.112 57.0493 134.334C57.2521 134.547 57.4405 134.871 57.6144 135.305L60.0489 141.305C60.1165 141.469 60.189 141.638 60.2662 141.812C60.3435 141.986 60.445 142.131 60.5706 142.246C60.7058 142.353 60.8749 142.411 61.0777 142.42C61.184 142.42 61.2661 142.43 61.3241 142.449C61.3917 142.469 61.4303 142.56 61.44 142.725C61.44 142.802 61.4159 142.874 61.3676 142.942C61.3289 143.01 61.2661 143.043 61.1792 143.043C60.87 143.024 60.5995 143.01 60.3677 143C60.1358 143 59.875 143 59.5852 143C59.0152 143 58.4162 143.014 57.7883 143.043C57.6917 143.043 57.6241 143.01 57.5854 142.942C57.5468 142.874 57.5275 142.802 57.5275 142.725C57.5371 142.56 57.5758 142.469 57.6434 142.449C57.711 142.43 57.7931 142.42 57.8897 142.42C58.3631 142.42 58.6191 142.333 58.6578 142.16C58.7061 141.986 58.6626 141.701 58.5273 141.305L58.0346 140.102H54.4554C54.3105 140.469 54.2042 140.735 54.1366 140.899C54.0786 141.063 54.04 141.169 54.0207 141.218C54.011 141.266 54.0013 141.295 53.9917 141.305C53.8854 141.633 53.8275 141.879 53.8178 142.044C53.8178 142.198 53.8951 142.3 54.0496 142.348C54.2139 142.396 54.4844 142.42 54.8611 142.42C54.9674 142.42 55.0495 142.43 55.1075 142.449C55.1751 142.469 55.2137 142.56 55.2234 142.725C55.2234 142.802 55.1993 142.874 55.151 142.942C55.1123 143.01 55.0495 143.043 54.9626 143.043C54.6534 143.024 54.3829 143.01 54.1511 143C53.9289 143 53.6729 143 53.3831 143C53.1899 143 53.0256 143 52.8904 143C52.7648 143.01 52.6344 143.014 52.4991 143.014C52.3639 143.024 52.19 143.034 51.9774 143.043ZM66.0528 143.145C65.4924 143.145 65.0674 143.01 64.7776 142.739C64.4974 142.469 64.3573 142.155 64.3573 141.797C64.3573 141.469 64.4588 141.208 64.6616 141.015C64.8645 140.812 65.1108 140.71 65.4007 140.71C65.5166 140.71 65.6084 140.725 65.676 140.754C65.7533 140.783 65.7967 140.812 65.8064 140.841C65.8064 140.87 65.7774 140.933 65.7195 141.029C65.6712 141.116 65.647 141.232 65.647 141.377C65.647 141.754 65.8499 141.942 66.2556 141.942C66.6324 141.942 66.927 141.676 67.1396 141.145C67.3618 140.614 67.5405 139.87 67.6757 138.914C67.8206 137.948 67.9656 136.827 68.1105 135.552C68.1588 135.127 68.1201 134.837 67.9945 134.682C67.8689 134.518 67.6129 134.436 67.2265 134.436C67.1299 134.436 67.0478 134.426 66.9802 134.407C66.9125 134.388 66.8739 134.296 66.8642 134.132C66.8642 134.054 66.8836 133.982 66.9222 133.914C66.9609 133.847 67.0285 133.813 67.1251 133.813C67.4342 133.822 67.724 133.832 67.9945 133.842C68.2747 133.851 68.5548 133.856 68.835 133.856H72.4867C72.7765 133.856 73.0567 133.851 73.3272 133.842C73.5977 133.832 73.8875 133.822 74.1966 133.813C74.2932 133.813 74.3609 133.847 74.3995 133.914C74.4382 133.982 74.4575 134.054 74.4575 134.132C74.4478 134.296 74.4092 134.388 74.3415 134.407C74.2836 134.426 74.2015 134.436 74.0952 134.436C73.7088 134.436 73.4576 134.537 73.3417 134.74C73.2258 134.933 73.163 135.204 73.1533 135.552V141.305C73.163 141.488 73.1823 141.667 73.2113 141.841C73.2402 142.005 73.3175 142.145 73.4431 142.261C73.5784 142.367 73.7957 142.42 74.0952 142.42C74.2015 142.42 74.2836 142.43 74.3415 142.449C74.4092 142.469 74.4478 142.56 74.4575 142.725C74.4575 142.802 74.4382 142.874 74.3995 142.942C74.3609 143.01 74.2932 143.043 74.1966 143.043C73.8875 143.024 73.5929 143.01 73.3127 143C73.0422 143 72.762 143 72.4722 143C71.9022 143 71.3033 143.014 70.6754 143.043C70.5787 143.043 70.5111 143.01 70.4725 142.942C70.4338 142.874 70.4145 142.802 70.4145 142.725C70.4242 142.56 70.4628 142.469 70.5304 142.449C70.5981 142.43 70.6802 142.42 70.7768 142.42C71.0859 142.42 71.3033 142.367 71.4289 142.261C71.5545 142.145 71.6318 142.005 71.6607 141.841C71.6994 141.667 71.7187 141.488 71.7187 141.305V134.479H69.69C69.4388 134.479 69.2504 134.528 69.1248 134.624C69.0089 134.721 68.9268 134.996 68.8785 135.45C68.7722 136.523 68.6563 137.527 68.5307 138.464C68.4051 139.392 68.2457 140.208 68.0525 140.913C67.8593 141.609 67.6033 142.155 67.2845 142.551C66.9657 142.947 66.5551 143.145 66.0528 143.145ZM78.8104 143.043C78.7138 143.043 78.6462 143.01 78.6075 142.942C78.5689 142.874 78.5496 142.802 78.5496 142.725C78.5592 142.56 78.5979 142.469 78.6655 142.449C78.7331 142.43 78.8152 142.42 78.9118 142.42C79.221 142.42 79.4384 142.367 79.5639 142.261C79.6895 142.145 79.7668 142.005 79.7958 141.841C79.8344 141.667 79.8538 141.488 79.8538 141.305V135.552C79.8538 135.368 79.8344 135.194 79.7958 135.03C79.7668 134.856 79.6895 134.716 79.5639 134.61C79.4384 134.494 79.221 134.436 78.9118 134.436C78.8152 134.436 78.7331 134.426 78.6655 134.407C78.5979 134.388 78.5592 134.296 78.5496 134.132C78.5496 134.054 78.5689 133.982 78.6075 133.914C78.6462 133.847 78.7138 133.813 78.8104 133.813C79.1196 133.822 79.4094 133.832 79.6799 133.842C79.9504 133.851 80.2305 133.856 80.5203 133.856C81.1096 133.856 81.7134 133.842 82.3317 133.813C82.4283 133.813 82.4959 133.847 82.5346 133.914C82.5732 133.982 82.5925 134.054 82.5925 134.132C82.5829 134.296 82.5442 134.388 82.4766 134.407C82.409 134.426 82.3269 134.436 82.2303 134.436C81.9308 134.436 81.7134 134.494 81.5782 134.61C81.4526 134.716 81.3753 134.856 81.3463 135.03C81.3173 135.194 81.298 135.368 81.2884 135.552V137.551C81.8293 137.464 82.3269 137.421 82.7809 137.421C83.5731 137.421 84.23 137.551 84.7517 137.812C85.283 138.063 85.6791 138.402 85.9399 138.827C86.2104 139.242 86.3457 139.706 86.3457 140.218C86.3457 140.768 86.2201 141.222 85.9689 141.58C85.7177 141.937 85.3893 142.222 84.9835 142.435C84.5778 142.638 84.1382 142.783 83.6649 142.87C83.2012 142.957 82.7519 143 82.3172 143H80.5348C80.245 143 79.96 143 79.6799 143C79.4094 143.01 79.1196 143.024 78.8104 143.043ZM82.2013 142.42C82.6843 142.411 83.1142 142.343 83.491 142.217C83.8774 142.082 84.1817 141.86 84.4039 141.551C84.6261 141.232 84.7372 140.793 84.7372 140.232C84.7372 139.72 84.6116 139.305 84.3604 138.986C84.1093 138.667 83.7905 138.435 83.404 138.29C83.0176 138.136 82.6167 138.059 82.2013 138.059C82.0467 138.059 81.8921 138.063 81.7376 138.073C81.583 138.083 81.4333 138.107 81.2884 138.146V141.276C81.2787 141.768 81.3367 142.082 81.4622 142.217C81.5975 142.353 81.8438 142.42 82.2013 142.42ZM90.3738 143.043C90.2772 143.043 90.2096 143.01 90.1709 142.942C90.1323 142.874 90.113 142.802 90.113 142.725C90.1226 142.56 90.1613 142.469 90.2289 142.449C90.2965 142.43 90.3786 142.42 90.4752 142.42C90.7844 142.42 91.0017 142.367 91.1273 142.261C91.2529 142.145 91.3302 142.005 91.3592 141.841C91.3978 141.667 91.4172 141.488 91.4172 141.305V135.552C91.4172 135.368 91.3978 135.194 91.3592 135.03C91.3302 134.856 91.2529 134.716 91.1273 134.61C91.0017 134.494 90.7844 134.436 90.4752 134.436C90.3786 134.436 90.2965 134.426 90.2289 134.407C90.1613 134.388 90.1226 134.296 90.113 134.132C90.113 134.054 90.1323 133.982 90.1709 133.914C90.2096 133.847 90.2772 133.813 90.3738 133.813C90.6829 133.822 90.9728 133.832 91.2433 133.842C91.5138 133.851 91.7939 133.856 92.0837 133.856C92.673 133.856 93.2768 133.842 93.8951 133.813C93.9917 133.813 94.0593 133.847 94.098 133.914C94.1366 133.982 94.1559 134.054 94.1559 134.132C94.1463 134.296 94.1076 134.388 94.04 134.407C93.982 134.426 93.8999 134.436 93.7937 134.436C93.4942 134.436 93.2768 134.494 93.1416 134.61C93.016 134.716 92.9387 134.856 92.9097 135.03C92.8807 135.194 92.8614 135.368 92.8517 135.552V138.117H97.4019V135.552C97.4019 135.368 97.3826 135.194 97.3439 135.03C97.3149 134.856 97.2377 134.716 97.1121 134.61C96.9865 134.494 96.7691 134.436 96.46 134.436C96.3634 134.436 96.2764 134.426 96.1991 134.407C96.1315 134.388 96.0929 134.296 96.0832 134.132C96.0832 134.054 96.1025 133.982 96.1412 133.914C96.1895 133.847 96.2571 133.813 96.3441 133.813C96.972 133.842 97.5758 133.856 98.1554 133.856C98.4452 133.856 98.7254 133.851 98.9959 133.842C99.276 133.832 99.5707 133.822 99.8798 133.813C99.9668 133.813 100.03 133.847 100.068 133.914C100.117 133.982 100.141 134.054 100.141 134.132C100.131 134.296 100.092 134.388 100.025 134.407C99.9571 134.426 99.875 134.436 99.7784 134.436C99.4789 134.436 99.2616 134.494 99.1263 134.61C98.9911 134.716 98.9089 134.856 98.88 135.03C98.851 135.194 98.8317 135.368 98.822 135.552V141.305C98.8317 141.488 98.851 141.667 98.88 141.841C98.9089 142.005 98.9911 142.145 99.1263 142.261C99.2616 142.367 99.4789 142.42 99.7784 142.42C99.875 142.42 99.9571 142.43 100.025 142.449C100.092 142.469 100.131 142.56 100.141 142.725C100.141 142.802 100.117 142.874 100.068 142.942C100.03 143.01 99.9668 143.043 99.8798 143.043C99.5707 143.024 99.276 143.01 98.9959 143C98.7157 143 98.4307 143 98.1409 143C97.571 143 96.972 143.014 96.3441 143.043C96.2571 143.043 96.1895 143.01 96.1412 142.942C96.1025 142.874 96.0832 142.802 96.0832 142.725C96.0929 142.56 96.1315 142.469 96.1991 142.449C96.2764 142.43 96.3634 142.42 96.46 142.42C96.7691 142.42 96.9865 142.367 97.1121 142.261C97.2377 142.145 97.3149 142.005 97.3439 141.841C97.3826 141.667 97.4019 141.488 97.4019 141.305V138.74H92.8517V141.305C92.8614 141.488 92.8807 141.667 92.9097 141.841C92.9387 142.005 93.016 142.145 93.1416 142.261C93.2768 142.367 93.4942 142.42 93.7937 142.42C93.8999 142.42 93.982 142.43 94.04 142.449C94.1076 142.469 94.1463 142.56 94.1559 142.725C94.1559 142.802 94.1366 142.874 94.098 142.942C94.0593 143.01 93.9917 143.043 93.8951 143.043C93.2768 143.014 92.6779 143 92.0982 143C91.8084 143 91.5234 143 91.2433 143C90.9728 143.01 90.6829 143.024 90.3738 143.043ZM103.45 143.043C103.353 143.043 103.285 143.01 103.247 142.942C103.208 142.874 103.189 142.802 103.189 142.725C103.198 142.56 103.237 142.469 103.305 142.449C103.372 142.43 103.454 142.42 103.551 142.42C103.812 142.42 104.01 142.367 104.145 142.261C104.28 142.155 104.387 142.015 104.464 141.841C104.551 141.667 104.633 141.488 104.71 141.305L107.246 135.305C107.343 135.073 107.362 134.9 107.304 134.784C107.246 134.658 107.15 134.571 107.014 134.523C106.879 134.465 106.729 134.421 106.565 134.392C106.42 134.363 106.324 134.339 106.275 134.32C106.227 134.291 106.203 134.204 106.203 134.059C106.203 133.895 106.261 133.808 106.377 133.798C106.493 133.779 106.628 133.769 106.782 133.769C107.179 133.769 107.517 133.808 107.797 133.885C108.077 133.963 108.319 134.112 108.521 134.334C108.724 134.547 108.913 134.871 109.087 135.305L111.521 141.305C111.589 141.469 111.661 141.638 111.738 141.812C111.816 141.986 111.917 142.131 112.043 142.246C112.178 142.353 112.347 142.411 112.55 142.42C112.656 142.42 112.738 142.43 112.796 142.449C112.864 142.469 112.902 142.56 112.912 142.725C112.912 142.802 112.888 142.874 112.84 142.942C112.801 143.01 112.738 143.043 112.651 143.043C112.342 143.024 112.072 143.01 111.84 143C111.608 143 111.347 143 111.057 143C110.487 143 109.888 143.014 109.26 143.043C109.164 143.043 109.096 143.01 109.058 142.942C109.019 142.874 109 142.802 109 142.725C109.009 142.56 109.048 142.469 109.116 142.449C109.183 142.43 109.265 142.42 109.362 142.42C109.835 142.42 110.091 142.333 110.13 142.16C110.178 141.986 110.135 141.701 109.999 141.305L109.507 140.102H105.928C105.783 140.469 105.676 140.735 105.609 140.899C105.551 141.063 105.512 141.169 105.493 141.218C105.483 141.266 105.473 141.295 105.464 141.305C105.358 141.633 105.3 141.879 105.29 142.044C105.29 142.198 105.367 142.3 105.522 142.348C105.686 142.396 105.957 142.42 106.333 142.42C106.44 142.42 106.522 142.43 106.58 142.449C106.647 142.469 106.686 142.56 106.696 142.725C106.696 142.802 106.671 142.874 106.623 142.942C106.584 143.01 106.522 143.043 106.435 143.043C106.126 143.024 105.855 143.01 105.623 143C105.401 143 105.145 143 104.855 143C104.662 143 104.498 143 104.363 143C104.237 143.01 104.107 143.014 103.971 143.014C103.836 143.024 103.662 143.034 103.45 143.043ZM106.203 139.479H109.246L107.782 135.755H107.739L106.203 139.479ZM117.177 143.145C117.003 143.145 116.815 143.116 116.612 143.058C116.409 143 116.226 142.903 116.061 142.768C115.907 142.633 115.805 142.454 115.757 142.232C115.747 142.155 115.762 142.077 115.8 142C115.839 141.923 115.907 141.889 116.003 141.899C116.081 141.899 116.143 141.947 116.192 142.044C116.25 142.14 116.317 142.237 116.395 142.333C116.482 142.42 116.597 142.473 116.742 142.493C117.023 142.512 117.264 142.416 117.467 142.203C117.67 141.981 117.863 141.696 118.047 141.348C118.23 141 118.428 140.648 118.641 140.29C118.844 139.952 119.08 139.638 119.351 139.348C119.621 139.058 119.95 138.841 120.336 138.696V138.653C119.95 138.643 119.573 138.575 119.206 138.45C118.848 138.324 118.51 138.141 118.191 137.899C117.969 137.706 117.791 137.474 117.655 137.204C117.52 136.923 117.457 136.605 117.467 136.247C117.477 135.813 117.568 135.45 117.742 135.16C117.926 134.861 118.158 134.624 118.438 134.45C118.718 134.267 119.017 134.132 119.336 134.045C119.655 133.948 119.964 133.89 120.264 133.871C120.573 133.842 120.838 133.837 121.061 133.856H123.307C123.597 133.856 123.882 133.851 124.162 133.842C124.442 133.832 124.737 133.822 125.046 133.813C125.133 133.813 125.195 133.847 125.234 133.914C125.282 133.982 125.307 134.054 125.307 134.132C125.297 134.296 125.258 134.388 125.191 134.407C125.123 134.426 125.036 134.436 124.93 134.436C124.63 134.436 124.413 134.494 124.278 134.61C124.152 134.716 124.075 134.856 124.046 135.03C124.017 135.194 123.997 135.368 123.988 135.552V141.305C123.997 141.488 124.017 141.667 124.046 141.841C124.075 142.005 124.152 142.145 124.278 142.261C124.413 142.367 124.63 142.42 124.93 142.42C125.036 142.42 125.123 142.43 125.191 142.449C125.258 142.469 125.297 142.56 125.307 142.725C125.307 142.802 125.282 142.874 125.234 142.942C125.195 143.01 125.133 143.043 125.046 143.043C124.737 143.024 124.442 143.01 124.162 143C123.891 143 123.611 143 123.321 143C122.742 143 122.138 143.014 121.51 143.043C121.413 143.043 121.346 143.01 121.307 142.942C121.268 142.874 121.249 142.802 121.249 142.725C121.259 142.56 121.297 142.469 121.365 142.449C121.433 142.43 121.515 142.42 121.611 142.42C121.92 142.42 122.138 142.367 122.263 142.261C122.389 142.145 122.466 142.005 122.495 141.841C122.534 141.667 122.558 141.488 122.568 141.305V138.87H122.22C121.834 138.87 121.51 138.957 121.249 139.131C120.998 139.305 120.781 139.532 120.597 139.812C120.423 140.092 120.254 140.396 120.09 140.725C119.906 141.111 119.703 141.493 119.481 141.87C119.259 142.237 118.969 142.541 118.612 142.783C118.254 143.024 117.776 143.145 117.177 143.145ZM121.829 138.334H122.568V135.552C122.577 135.223 122.553 134.982 122.495 134.827C122.437 134.673 122.341 134.571 122.205 134.523C122.07 134.465 121.887 134.436 121.655 134.436C120.834 134.417 120.201 134.581 119.756 134.929C119.312 135.267 119.09 135.759 119.09 136.407C119.09 136.88 119.191 137.252 119.394 137.522C119.607 137.783 119.863 137.972 120.162 138.088C120.471 138.204 120.776 138.276 121.075 138.305C121.384 138.324 121.635 138.334 121.829 138.334ZM143.523 143.145C142.991 143.145 142.557 143.034 142.219 142.812C141.88 142.58 141.6 142.285 141.378 141.928C141.156 141.57 140.958 141.189 140.784 140.783C140.61 140.377 140.422 139.996 140.219 139.638C140.026 139.281 139.779 138.991 139.48 138.769C139.19 138.537 138.813 138.421 138.349 138.421H137.973V141.305C137.982 141.488 138.002 141.667 138.031 141.841C138.06 142.005 138.137 142.145 138.263 142.261C138.398 142.367 138.615 142.42 138.915 142.42C139.021 142.42 139.108 142.43 139.175 142.449C139.243 142.469 139.282 142.56 139.291 142.725C139.291 142.802 139.267 142.874 139.219 142.942C139.18 143.01 139.117 143.043 139.031 143.043C138.412 143.014 137.813 143 137.234 143C136.944 143 136.659 143 136.379 143C136.099 143.01 135.804 143.024 135.495 143.043C135.398 143.043 135.331 143.01 135.292 142.942C135.253 142.874 135.234 142.802 135.234 142.725C135.244 142.56 135.282 142.469 135.35 142.449C135.417 142.43 135.5 142.42 135.596 142.42C135.905 142.42 136.123 142.367 136.248 142.261C136.374 142.145 136.451 142.005 136.48 141.841C136.519 141.667 136.543 141.488 136.553 141.305V135.552C136.543 135.368 136.519 135.194 136.48 135.03C136.451 134.856 136.374 134.716 136.248 134.61C136.123 134.494 135.905 134.436 135.596 134.436C135.5 134.436 135.417 134.426 135.35 134.407C135.282 134.388 135.244 134.296 135.234 134.132C135.234 134.054 135.253 133.982 135.292 133.914C135.331 133.847 135.398 133.813 135.495 133.813C135.804 133.822 136.094 133.832 136.364 133.842C136.644 133.851 136.929 133.856 137.219 133.856C137.808 133.856 138.412 133.842 139.031 133.813C139.117 133.813 139.18 133.847 139.219 133.914C139.267 133.982 139.291 134.054 139.291 134.132C139.282 134.296 139.243 134.388 139.175 134.407C139.108 134.426 139.021 134.436 138.915 134.436C138.615 134.436 138.398 134.494 138.263 134.61C138.137 134.716 138.06 134.856 138.031 135.03C138.002 135.194 137.982 135.368 137.973 135.552V137.841H138.654C138.944 137.841 139.238 137.749 139.538 137.566C139.837 137.382 140.098 137.078 140.32 136.653C140.446 136.411 140.571 136.122 140.697 135.784C140.832 135.436 140.987 135.098 141.161 134.769C141.335 134.441 141.547 134.161 141.798 133.929C142.049 133.697 142.359 133.571 142.726 133.552C143.035 133.552 143.296 133.62 143.508 133.755C143.721 133.88 143.88 134.045 143.986 134.247C144.102 134.45 144.16 134.653 144.16 134.856C144.16 135.088 144.102 135.286 143.986 135.45C143.87 135.605 143.74 135.726 143.595 135.813C143.45 135.89 143.334 135.928 143.247 135.928C143.17 135.928 143.131 135.904 143.131 135.856C143.131 135.614 143.069 135.392 142.943 135.189C142.827 134.987 142.673 134.885 142.479 134.885C142.257 134.885 142.064 134.953 141.9 135.088C141.745 135.223 141.61 135.392 141.494 135.595C141.388 135.788 141.291 135.991 141.204 136.204C141.127 136.416 141.05 136.605 140.972 136.769C140.808 137.117 140.61 137.402 140.378 137.624C140.146 137.846 139.905 137.981 139.654 138.03V138.073C140.137 138.073 140.542 138.184 140.871 138.406C141.199 138.629 141.479 138.914 141.711 139.261C141.943 139.599 142.146 139.957 142.32 140.334C142.494 140.71 142.658 141.068 142.813 141.406C142.967 141.734 143.136 142.005 143.32 142.217C143.503 142.42 143.721 142.512 143.972 142.493C144.117 142.473 144.228 142.42 144.305 142.333C144.382 142.237 144.45 142.14 144.508 142.044C144.566 141.947 144.629 141.899 144.696 141.899C144.803 141.889 144.875 141.923 144.914 142C144.952 142.077 144.962 142.155 144.943 142.232C144.904 142.454 144.803 142.633 144.639 142.768C144.484 142.903 144.305 143 144.102 143.058C143.899 143.116 143.706 143.145 143.523 143.145ZM152.667 143.29C151.961 143.29 151.324 143.159 150.754 142.899C150.184 142.638 149.696 142.285 149.29 141.841C148.884 141.396 148.575 140.894 148.363 140.334C148.15 139.764 148.044 139.17 148.044 138.551C148.044 137.749 148.179 137.039 148.45 136.421C148.73 135.803 149.097 135.281 149.551 134.856C150.005 134.431 150.503 134.112 151.044 133.9C151.594 133.678 152.135 133.566 152.667 133.566C153.391 133.566 154.038 133.697 154.608 133.958C155.188 134.219 155.681 134.571 156.086 135.016C156.492 135.46 156.801 135.967 157.014 136.537C157.226 137.097 157.333 137.682 157.333 138.29C157.333 139.092 157.193 139.802 156.912 140.421C156.632 141.039 156.26 141.561 155.797 141.986C155.333 142.411 154.826 142.734 154.275 142.957C153.734 143.179 153.198 143.29 152.667 143.29ZM152.652 142.652C153.338 142.652 153.898 142.449 154.333 142.044C154.768 141.638 155.087 141.107 155.289 140.45C155.502 139.783 155.608 139.063 155.608 138.29C155.608 137.566 155.497 136.895 155.275 136.276C155.062 135.648 154.739 135.146 154.304 134.769C153.869 134.383 153.319 134.19 152.652 134.19C151.976 134.19 151.42 134.392 150.986 134.798C150.561 135.194 150.247 135.721 150.044 136.378C149.841 137.025 149.739 137.735 149.739 138.508C149.739 139.232 149.841 139.913 150.044 140.551C150.256 141.179 150.58 141.686 151.015 142.073C151.449 142.459 151.995 142.652 152.652 142.652ZM166.659 143.072C166.601 143.072 166.544 143.058 166.486 143.029C166.428 143.01 166.384 142.976 166.355 142.928L163.095 135.552H163.051L163.08 141.305C163.09 141.488 163.104 141.667 163.124 141.841C163.153 142.005 163.23 142.145 163.356 142.261C163.481 142.367 163.694 142.42 163.993 142.42C164.099 142.42 164.186 142.43 164.254 142.449C164.322 142.469 164.36 142.56 164.37 142.725C164.37 142.802 164.346 142.874 164.297 142.942C164.259 143.01 164.196 143.043 164.109 143.043C163.906 143.034 163.742 143.024 163.616 143.014C163.491 143.014 163.37 143.01 163.254 143C163.138 143 162.984 143 162.79 143C162.501 143 162.264 143 162.08 143C161.906 143.01 161.665 143.024 161.356 143.043C161.259 143.043 161.192 143.01 161.153 142.942C161.114 142.874 161.095 142.802 161.095 142.725C161.105 142.56 161.143 142.469 161.211 142.449C161.279 142.43 161.361 142.42 161.457 142.42C161.766 142.42 161.979 142.367 162.095 142.261C162.22 142.145 162.298 142.005 162.327 141.841C162.356 141.667 162.37 141.488 162.37 141.305L162.399 135.552C162.399 135.243 162.365 135.016 162.298 134.871C162.23 134.716 162.124 134.61 161.979 134.552C161.834 134.484 161.65 134.431 161.428 134.392C161.293 134.363 161.196 134.339 161.138 134.32C161.09 134.301 161.066 134.214 161.066 134.059C161.066 133.895 161.124 133.808 161.24 133.798C161.356 133.779 161.491 133.769 161.646 133.769C162.119 133.769 162.534 133.808 162.892 133.885C163.259 133.963 163.578 134.112 163.848 134.334C164.119 134.547 164.341 134.871 164.515 135.305L167.007 140.899H167.051L169.905 133.856H170.731C171.021 133.856 171.301 133.851 171.572 133.842C171.852 133.832 172.147 133.822 172.456 133.813C172.552 133.813 172.62 133.847 172.659 133.914C172.697 133.982 172.717 134.054 172.717 134.132C172.707 134.296 172.668 134.388 172.601 134.407C172.533 134.426 172.451 134.436 172.354 134.436C172.055 134.436 171.838 134.494 171.702 134.61C171.577 134.716 171.499 134.856 171.47 135.03C171.441 135.194 171.422 135.368 171.412 135.552V141.305C171.422 141.488 171.441 141.667 171.47 141.841C171.499 142.005 171.577 142.145 171.702 142.261C171.838 142.367 172.055 142.42 172.354 142.42C172.451 142.42 172.533 142.43 172.601 142.449C172.668 142.469 172.707 142.56 172.717 142.725C172.717 142.802 172.697 142.874 172.659 142.942C172.62 143.01 172.552 143.043 172.456 143.043C172.147 143.024 171.852 143.01 171.572 143C171.292 143 171.007 143 170.717 143C170.157 143 169.562 143.014 168.935 143.043C168.838 143.043 168.77 143.01 168.732 142.942C168.693 142.874 168.674 142.802 168.674 142.725C168.683 142.56 168.722 142.469 168.79 142.449C168.857 142.43 168.939 142.42 169.036 142.42C169.345 142.42 169.562 142.367 169.688 142.261C169.814 142.145 169.891 142.005 169.92 141.841C169.959 141.667 169.978 141.488 169.978 141.305V135.552H169.934L166.949 142.928C166.93 142.976 166.891 143.01 166.833 143.029C166.775 143.058 166.717 143.072 166.659 143.072ZM176.943 143.043C176.847 143.043 176.779 143.01 176.74 142.942C176.702 142.874 176.682 142.802 176.682 142.725C176.692 142.56 176.731 142.469 176.798 142.449C176.866 142.43 176.948 142.42 177.045 142.42C177.354 142.42 177.571 142.367 177.697 142.261C177.822 142.145 177.9 142.005 177.929 141.841C177.967 141.667 177.987 141.488 177.987 141.305V135.552C177.987 135.368 177.967 135.194 177.929 135.03C177.9 134.856 177.822 134.716 177.697 134.61C177.571 134.494 177.354 134.436 177.045 134.436C176.948 134.436 176.866 134.426 176.798 134.407C176.731 134.388 176.692 134.296 176.682 134.132C176.682 134.054 176.702 133.982 176.74 133.914C176.779 133.847 176.847 133.813 176.943 133.813C177.252 133.822 177.542 133.832 177.813 133.842C178.083 133.851 178.363 133.856 178.653 133.856H184.29C184.87 133.856 185.469 133.842 186.087 133.813C186.174 133.813 186.237 133.847 186.275 133.914C186.324 133.982 186.348 134.054 186.348 134.132C186.338 134.296 186.3 134.388 186.232 134.407C186.164 134.426 186.077 134.436 185.971 134.436C185.672 134.436 185.454 134.494 185.319 134.61C185.193 134.716 185.116 134.856 185.087 135.03C185.058 135.194 185.039 135.368 185.029 135.552V141.305C185.039 141.488 185.058 141.667 185.087 141.841C185.116 142.005 185.193 142.145 185.319 142.261C185.454 142.367 185.672 142.42 185.971 142.42C186.077 142.42 186.164 142.43 186.232 142.449C186.3 142.469 186.338 142.56 186.348 142.725C186.348 142.802 186.324 142.874 186.275 142.942C186.237 143.01 186.174 143.043 186.087 143.043C185.469 143.014 184.865 143 184.276 143C183.986 143 183.701 143 183.421 143C183.15 143.01 182.86 143.024 182.551 143.043C182.455 143.043 182.387 143.01 182.348 142.942C182.31 142.874 182.29 142.802 182.29 142.725C182.3 142.56 182.339 142.469 182.406 142.449C182.474 142.43 182.556 142.42 182.653 142.42C182.962 142.42 183.179 142.367 183.305 142.261C183.43 142.145 183.508 142.005 183.537 141.841C183.575 141.667 183.599 141.488 183.609 141.305V134.436H180.363C180.035 134.417 179.803 134.46 179.668 134.566C179.542 134.673 179.469 134.813 179.45 134.987C179.431 135.16 179.421 135.349 179.421 135.552V141.305C179.431 141.488 179.45 141.667 179.479 141.841C179.508 142.005 179.585 142.145 179.711 142.261C179.846 142.367 180.064 142.42 180.363 142.42C180.469 142.42 180.551 142.43 180.609 142.449C180.677 142.469 180.716 142.56 180.725 142.725C180.725 142.802 180.706 142.874 180.667 142.942C180.629 143.01 180.561 143.043 180.465 143.043C179.846 143.014 179.247 143 178.668 143C178.378 143 178.093 143 177.813 143C177.542 143.01 177.252 143.024 176.943 143.043ZM189.776 143.043C189.679 143.043 189.611 143.01 189.573 142.942C189.534 142.874 189.515 142.802 189.515 142.725C189.525 142.56 189.563 142.469 189.631 142.449C189.698 142.43 189.781 142.42 189.877 142.42C190.138 142.42 190.336 142.367 190.471 142.261C190.607 142.155 190.713 142.015 190.79 141.841C190.877 141.667 190.959 141.488 191.036 141.305L193.572 135.305C193.669 135.073 193.688 134.9 193.63 134.784C193.572 134.658 193.476 134.571 193.34 134.523C193.205 134.465 193.056 134.421 192.891 134.392C192.746 134.363 192.65 134.339 192.601 134.32C192.553 134.291 192.529 134.204 192.529 134.059C192.529 133.895 192.587 133.808 192.703 133.798C192.819 133.779 192.954 133.769 193.109 133.769C193.505 133.769 193.843 133.808 194.123 133.885C194.403 133.963 194.645 134.112 194.848 134.334C195.05 134.547 195.239 134.871 195.413 135.305L197.847 141.305C197.915 141.469 197.987 141.638 198.065 141.812C198.142 141.986 198.243 142.131 198.369 142.246C198.504 142.353 198.673 142.411 198.876 142.42C198.982 142.42 199.064 142.43 199.122 142.449C199.19 142.469 199.229 142.56 199.238 142.725C199.238 142.802 199.214 142.874 199.166 142.942C199.127 143.01 199.064 143.043 198.977 143.043C198.668 143.024 198.398 143.01 198.166 143C197.934 143 197.673 143 197.383 143C196.813 143 196.215 143.014 195.587 143.043C195.49 143.043 195.422 143.01 195.384 142.942C195.345 142.874 195.326 142.802 195.326 142.725C195.335 142.56 195.374 142.469 195.442 142.449C195.509 142.43 195.591 142.42 195.688 142.42C196.161 142.42 196.417 142.333 196.456 142.16C196.504 141.986 196.461 141.701 196.326 141.305L195.833 140.102H192.254C192.109 140.469 192.002 140.735 191.935 140.899C191.877 141.063 191.838 141.169 191.819 141.218C191.809 141.266 191.8 141.295 191.79 141.305C191.684 141.633 191.626 141.879 191.616 142.044C191.616 142.198 191.693 142.3 191.848 142.348C192.012 142.396 192.283 142.42 192.659 142.42C192.766 142.42 192.848 142.43 192.906 142.449C192.973 142.469 193.012 142.56 193.022 142.725C193.022 142.802 192.998 142.874 192.949 142.942C192.911 143.01 192.848 143.043 192.761 143.043C192.452 143.024 192.181 143.01 191.949 143C191.727 143 191.471 143 191.181 143C190.988 143 190.824 143 190.689 143C190.563 143.01 190.433 143.014 190.297 143.014C190.162 143.024 189.988 143.034 189.776 143.043ZM192.529 139.479H195.572L194.109 135.755H194.065L192.529 139.479ZM202.068 143.043C201.971 143.043 201.904 143.01 201.865 142.942C201.827 142.874 201.807 142.802 201.807 142.725C201.817 142.56 201.856 142.469 201.923 142.449C201.991 142.43 202.073 142.42 202.17 142.42C202.479 142.42 202.696 142.367 202.822 142.261C202.947 142.145 203.024 142.005 203.053 141.841C203.092 141.667 203.111 141.488 203.111 141.305V135.552C203.111 135.368 203.092 135.194 203.053 135.03C203.024 134.856 202.947 134.716 202.822 134.61C202.696 134.494 202.479 134.436 202.17 134.436C202.073 134.436 201.991 134.426 201.923 134.407C201.856 134.388 201.817 134.296 201.807 134.132C201.807 134.054 201.827 133.982 201.865 133.914C201.904 133.847 201.971 133.813 202.068 133.813C202.377 133.822 202.667 133.832 202.938 133.842C203.208 133.851 203.488 133.856 203.778 133.856C204.367 133.856 204.971 133.842 205.589 133.813C205.686 133.813 205.754 133.847 205.792 133.914C205.831 133.982 205.85 134.054 205.85 134.132C205.841 134.296 205.802 134.388 205.734 134.407C205.676 134.426 205.594 134.436 205.488 134.436C205.188 134.436 204.971 134.494 204.836 134.61C204.71 134.716 204.633 134.856 204.604 135.03C204.575 135.194 204.556 135.368 204.546 135.552V138.117H209.096V135.552C209.096 135.368 209.077 135.194 209.038 135.03C209.009 134.856 208.932 134.716 208.806 134.61C208.681 134.494 208.463 134.436 208.154 134.436C208.058 134.436 207.971 134.426 207.893 134.407C207.826 134.388 207.787 134.296 207.778 134.132C207.778 134.054 207.797 133.982 207.835 133.914C207.884 133.847 207.951 133.813 208.038 133.813C208.666 133.842 209.27 133.856 209.85 133.856C210.14 133.856 210.42 133.851 210.69 133.842C210.97 133.832 211.265 133.822 211.574 133.813C211.661 133.813 211.724 133.847 211.763 133.914C211.811 133.982 211.835 134.054 211.835 134.132C211.825 134.296 211.787 134.388 211.719 134.407C211.651 134.426 211.569 134.436 211.473 134.436C211.173 134.436 210.956 134.494 210.821 134.61C210.685 134.716 210.603 134.856 210.574 135.03C210.545 135.194 210.526 135.368 210.516 135.552V141.305C210.526 141.488 210.545 141.667 210.574 141.841C210.603 142.005 210.685 142.145 210.821 142.261C210.956 142.367 211.173 142.42 211.473 142.42C211.569 142.42 211.651 142.43 211.719 142.449C211.787 142.469 211.825 142.56 211.835 142.725C211.835 142.802 211.811 142.874 211.763 142.942C211.724 143.01 211.661 143.043 211.574 143.043C211.265 143.024 210.97 143.01 210.69 143C210.41 143 210.125 143 209.835 143C209.265 143 208.666 143.014 208.038 143.043C207.951 143.043 207.884 143.01 207.835 142.942C207.797 142.874 207.778 142.802 207.778 142.725C207.787 142.56 207.826 142.469 207.893 142.449C207.971 142.43 208.058 142.42 208.154 142.42C208.463 142.42 208.681 142.367 208.806 142.261C208.932 142.145 209.009 142.005 209.038 141.841C209.077 141.667 209.096 141.488 209.096 141.305V138.74H204.546V141.305C204.556 141.488 204.575 141.667 204.604 141.841C204.633 142.005 204.71 142.145 204.836 142.261C204.971 142.367 205.188 142.42 205.488 142.42C205.594 142.42 205.676 142.43 205.734 142.449C205.802 142.469 205.841 142.56 205.85 142.725C205.85 142.802 205.831 142.874 205.792 142.942C205.754 143.01 205.686 143.043 205.589 143.043C204.971 143.014 204.372 143 203.793 143C203.503 143 203.218 143 202.938 143C202.667 143.01 202.377 143.024 202.068 143.043ZM216.057 143.043C215.96 143.034 215.893 143 215.854 142.942C215.815 142.874 215.796 142.802 215.796 142.725C215.806 142.56 215.844 142.469 215.912 142.449C215.98 142.43 216.062 142.42 216.158 142.42C216.467 142.42 216.685 142.367 216.81 142.261C216.936 142.145 217.013 142.005 217.042 141.841C217.081 141.667 217.1 141.488 217.1 141.305V135.552C217.1 135.368 217.081 135.194 217.042 135.03C217.013 134.856 216.936 134.716 216.81 134.61C216.685 134.494 216.467 134.436 216.158 134.436C216.062 134.436 215.98 134.426 215.912 134.407C215.844 134.388 215.806 134.296 215.796 134.132C215.796 134.054 215.815 133.982 215.854 133.914C215.893 133.847 215.96 133.813 216.057 133.813C216.366 133.822 216.656 133.832 216.926 133.842C217.197 133.851 217.477 133.856 217.767 133.856C218.356 133.856 218.96 133.842 219.578 133.813C219.675 133.813 219.742 133.847 219.781 133.914C219.82 133.982 219.839 134.054 219.839 134.132C219.829 134.296 219.791 134.388 219.723 134.407C219.665 134.426 219.583 134.436 219.477 134.436C219.177 134.436 218.96 134.494 218.825 134.61C218.699 134.716 218.622 134.856 218.593 135.03C218.564 135.194 218.544 135.368 218.535 135.552V140.681L222.694 135.436C223.061 134.982 223.351 134.644 223.563 134.421C223.776 134.199 223.964 134.049 224.128 133.972C224.292 133.895 224.476 133.851 224.679 133.842C224.853 133.822 224.993 133.813 225.099 133.813C225.215 133.813 225.321 133.813 225.418 133.813C225.524 133.813 225.592 133.847 225.621 133.914C225.659 133.982 225.679 134.054 225.679 134.132C225.669 134.296 225.63 134.388 225.563 134.407C225.505 134.426 225.423 134.436 225.316 134.436C225.017 134.436 224.8 134.494 224.664 134.61C224.539 134.716 224.462 134.856 224.433 135.03C224.404 135.194 224.384 135.368 224.375 135.552V141.305C224.384 141.488 224.404 141.667 224.433 141.841C224.462 142.005 224.539 142.145 224.664 142.261C224.8 142.367 225.017 142.42 225.316 142.42C225.423 142.42 225.505 142.43 225.563 142.449C225.63 142.469 225.669 142.56 225.679 142.725C225.679 142.802 225.659 142.874 225.621 142.942C225.582 143.01 225.515 143.043 225.418 143.043C225.109 143.024 224.819 143.01 224.548 143C224.278 143 223.998 143 223.708 143C223.138 143 222.539 143.014 221.911 143.043C221.815 143.043 221.747 143.01 221.708 142.942C221.67 142.874 221.65 142.802 221.65 142.725C221.66 142.56 221.699 142.469 221.766 142.449C221.834 142.43 221.916 142.42 222.013 142.42C222.322 142.42 222.539 142.367 222.665 142.261C222.79 142.145 222.868 142.005 222.896 141.841C222.935 141.667 222.954 141.488 222.954 141.305V136.189L218.781 141.406C218.443 141.821 218.168 142.145 217.955 142.377C217.752 142.599 217.574 142.758 217.419 142.855C217.264 142.942 217.09 142.995 216.897 143.014C216.752 143.024 216.607 143.034 216.463 143.043C216.327 143.053 216.192 143.053 216.057 143.043ZM230.485 143.145C230.311 143.145 230.122 143.116 229.919 143.058C229.717 143 229.533 142.903 229.369 142.768C229.214 142.633 229.113 142.454 229.065 142.232C229.055 142.155 229.069 142.077 229.108 142C229.147 141.923 229.214 141.889 229.311 141.899C229.388 141.899 229.451 141.947 229.499 142.044C229.557 142.14 229.625 142.237 229.702 142.333C229.789 142.42 229.905 142.473 230.05 142.493C230.33 142.512 230.572 142.416 230.774 142.203C230.977 141.981 231.171 141.696 231.354 141.348C231.538 141 231.736 140.648 231.948 140.29C232.151 139.952 232.388 139.638 232.658 139.348C232.929 139.058 233.257 138.841 233.644 138.696V138.653C233.257 138.643 232.88 138.575 232.513 138.45C232.156 138.324 231.818 138.141 231.499 137.899C231.277 137.706 231.098 137.474 230.963 137.204C230.828 136.923 230.765 136.605 230.774 136.247C230.784 135.813 230.876 135.45 231.05 135.16C231.233 134.861 231.465 134.624 231.745 134.45C232.026 134.267 232.325 134.132 232.644 134.045C232.963 133.948 233.272 133.89 233.571 133.871C233.88 133.842 234.146 133.837 234.368 133.856H236.614C236.904 133.856 237.189 133.851 237.469 133.842C237.749 133.832 238.044 133.822 238.353 133.813C238.44 133.813 238.503 133.847 238.542 133.914C238.59 133.982 238.614 134.054 238.614 134.132C238.604 134.296 238.566 134.388 238.498 134.407C238.43 134.426 238.344 134.436 238.237 134.436C237.938 134.436 237.72 134.494 237.585 134.61C237.46 134.716 237.382 134.856 237.353 135.03C237.324 135.194 237.305 135.368 237.295 135.552V141.305C237.305 141.488 237.324 141.667 237.353 141.841C237.382 142.005 237.46 142.145 237.585 142.261C237.72 142.367 237.938 142.42 238.237 142.42C238.344 142.42 238.43 142.43 238.498 142.449C238.566 142.469 238.604 142.56 238.614 142.725C238.614 142.802 238.59 142.874 238.542 142.942C238.503 143.01 238.44 143.043 238.353 143.043C238.044 143.024 237.749 143.01 237.469 143C237.199 143 236.919 143 236.629 143C236.049 143 235.445 143.014 234.817 143.043C234.721 143.043 234.653 143.01 234.615 142.942C234.576 142.874 234.557 142.802 234.557 142.725C234.566 142.56 234.605 142.469 234.673 142.449C234.74 142.43 234.822 142.42 234.919 142.42C235.228 142.42 235.445 142.367 235.571 142.261C235.697 142.145 235.774 142.005 235.803 141.841C235.841 141.667 235.866 141.488 235.875 141.305V138.87H235.527C235.141 138.87 234.817 138.957 234.557 139.131C234.305 139.305 234.088 139.532 233.904 139.812C233.731 140.092 233.562 140.396 233.397 140.725C233.214 141.111 233.011 141.493 232.789 141.87C232.566 142.237 232.277 142.541 231.919 142.783C231.562 143.024 231.084 143.145 230.485 143.145ZM235.136 138.334H235.875V135.552C235.885 135.223 235.861 134.982 235.803 134.827C235.745 134.673 235.648 134.571 235.513 134.523C235.378 134.465 235.194 134.436 234.962 134.436C234.141 134.417 233.508 134.581 233.064 134.929C232.62 135.267 232.397 135.759 232.397 136.407C232.397 136.88 232.499 137.252 232.702 137.522C232.914 137.783 233.17 137.972 233.47 138.088C233.779 138.204 234.083 138.276 234.383 138.305C234.692 138.324 234.943 138.334 235.136 138.334Z" fill="#F5F1EA"/>
</g>
<defs>
<clipPath id="clip0_293_1074">
<rect width="242.781" height="147" fill="white"/>
</clipPath>
<clipPath id="clip1_293_1074">
<rect width="56.5872" height="36.9822" fill="white" transform="translate(171.638 1.16348)"/>
</clipPath>
</defs>
</svg>
