<svg width="53" height="33" viewBox="0 0 53 33" fill="none" xmlns="http://www.w3.org/2000/svg" role="img" aria-label="Рай">
  <path d="M1.90276 25.461C1.71252 25.461 1.56984 25.387 1.47471 25.239C1.37959 25.0911 1.33203 24.9325 1.33203 24.7634C1.35317 24.4041 1.44301 24.2032 1.60154 24.161C1.76008 24.1187 1.94504 24.0976 2.15642 24.0976C2.83284 24.0976 3.30845 23.976 3.58325 23.7329C3.85805 23.4898 4.03244 23.1833 4.10642 22.8134C4.18041 22.4435 4.2174 22.0577 4.2174 21.6561V9.06829C4.2174 8.66666 4.18041 8.28089 4.10642 7.91097C4.03244 7.54105 3.85805 7.23455 3.58325 6.99146C3.30845 6.74837 2.83284 6.62683 2.15642 6.62683C1.94504 6.62683 1.76008 6.60569 1.60154 6.56341C1.44301 6.52114 1.35317 6.32032 1.33203 5.96097C1.33203 5.79187 1.37959 5.63333 1.47471 5.48536C1.56984 5.3374 1.71252 5.26341 1.90276 5.26341C2.57919 5.28455 3.2239 5.30569 3.83691 5.32683C4.44992 5.34797 5.07349 5.35853 5.70764 5.35853H10.4637C10.8654 5.35853 11.3885 5.39024 12.0333 5.45366C12.678 5.51707 13.365 5.6439 14.0942 5.83414C14.8235 6.02439 15.5158 6.33089 16.1711 6.75366C16.8263 7.17642 17.3601 7.73658 17.7723 8.43414C18.1845 9.13171 18.3906 10.0089 18.3906 11.0659C18.3906 12.0593 18.1633 12.9577 17.7089 13.761C17.2544 14.5642 16.6519 15.2512 15.9015 15.8219C15.1511 16.3927 14.3056 16.8313 13.365 17.1378C12.4243 17.4443 11.4678 17.5976 10.4954 17.5976C10.0304 17.5976 9.52309 17.5659 8.97349 17.5024C8.4239 17.439 7.87431 17.3016 7.32471 17.0902V21.6561C7.34585 22.0577 7.38813 22.4435 7.45154 22.8134C7.51496 23.1833 7.68935 23.4898 7.97471 23.7329C8.26008 23.976 8.73041 24.0976 9.38569 24.0976C9.61821 24.0976 9.80845 24.1187 9.95642 24.161C10.1044 24.2032 10.1889 24.4041 10.2101 24.7634C10.2101 24.9325 10.1625 25.0911 10.0674 25.239C9.97228 25.387 9.82959 25.461 9.63935 25.461C8.2865 25.3976 6.96536 25.3659 5.67593 25.3659C5.04179 25.3659 4.42349 25.3711 3.82106 25.3817C3.21862 25.3923 2.57919 25.4187 1.90276 25.461ZM9.57593 16.1707C10.0621 16.1707 10.6064 16.0915 11.2089 15.9329C11.8113 15.7744 12.3926 15.5102 12.9528 15.1402C13.5129 14.7703 13.9727 14.263 14.332 13.6183C14.6914 12.9736 14.8711 12.1545 14.8711 11.161C14.8711 10.0829 14.6597 9.23211 14.2369 8.60853C13.8141 7.98496 13.291 7.5252 12.6674 7.22927C12.0438 6.93333 11.4255 6.74309 10.8125 6.65853C10.1995 6.57398 9.70276 6.53171 9.32228 6.53171C8.81496 6.53171 8.41333 6.58455 8.1174 6.69024C7.82146 6.79593 7.61536 7.02317 7.4991 7.37195C7.38284 7.72073 7.32471 8.25447 7.32471 8.97317V15.8219C7.5361 15.9065 7.8426 15.9858 8.24423 16.0598C8.64585 16.1337 9.08975 16.1707 9.57593 16.1707Z" fill="#26292C"/>
  <path d="M23.3682 25.7463C22.0787 25.7463 21.0482 25.3764 20.2767 24.6366C19.5052 23.8967 19.1194 23.0089 19.1194 21.9732C19.1194 20.8951 19.3995 20.0496 19.9596 19.4366C20.5198 18.8236 21.2596 18.3691 22.1791 18.0732C23.0987 17.7772 24.1027 17.5764 25.1913 17.4707C26.28 17.365 27.3421 17.2805 28.3779 17.2171V14.7122C28.3779 13.7187 28.1295 12.9419 27.6328 12.3817C27.1361 11.8215 26.2958 11.5415 25.1121 11.5415C24.5202 11.5415 23.9653 11.7317 23.4474 12.1122C22.9295 12.4927 22.6706 13.0423 22.6706 13.761C22.6706 14.0992 22.7552 14.3845 22.9243 14.6171C23.0934 14.8496 23.2625 15.0293 23.4316 15.1561C23.6007 15.2829 23.6852 15.3675 23.6852 15.4098C23.6852 15.4943 23.5637 15.6476 23.3206 15.8695C23.0775 16.0915 22.7446 16.2024 22.3218 16.2024C21.6665 16.2024 21.1592 15.9593 20.7999 15.4732C20.4405 14.987 20.2608 14.448 20.2608 13.8561C20.2608 13.0528 20.5092 12.4187 21.006 11.9537C21.5027 11.4886 22.1421 11.1504 22.9243 10.939C23.7064 10.7276 24.4991 10.6219 25.3023 10.6219C26.2535 10.6219 27.1783 10.7382 28.0767 10.9707C28.9751 11.2032 29.7149 11.6472 30.2962 12.3024C30.8775 12.9577 31.1682 13.9406 31.1682 15.2512V22.639C31.1893 22.8504 31.2421 23.1041 31.3267 23.4C31.4113 23.6959 31.5751 23.9549 31.8182 24.1768C32.0613 24.3988 32.3942 24.5098 32.8169 24.5098C32.9649 24.5098 33.0812 24.5362 33.1657 24.589C33.2503 24.6419 33.2926 24.7845 33.2926 25.0171C33.2926 25.2073 33.1869 25.3553 32.9755 25.461C32.7641 25.5667 32.521 25.6406 32.2462 25.6829C31.9714 25.7252 31.7389 25.7463 31.5487 25.7463C30.7665 25.7463 30.069 25.5191 29.456 25.0646C28.843 24.6102 28.4836 23.9813 28.3779 23.178C27.9129 24.0236 27.2206 24.663 26.3011 25.0963C25.3816 25.5297 24.4039 25.7463 23.3682 25.7463ZM24.3828 24.0341C25.1015 24.0341 25.7621 23.8545 26.3645 23.4951C26.9669 23.1358 27.4531 22.6443 27.823 22.0207C28.193 21.3972 28.3779 20.7049 28.3779 19.9439V18.1366C26.2007 18.2845 24.647 18.6333 23.7169 19.1829C22.7869 19.7325 22.3218 20.6309 22.3218 21.878C22.3218 23.3154 23.0088 24.0341 24.3828 24.0341Z" fill="#26292C"/>
  <path d="M35.005 25.461C34.8359 25.461 34.7091 25.3923 34.6245 25.2549C34.54 25.1175 34.4977 24.9748 34.4977 24.8268C34.5188 24.5098 34.5928 24.3354 34.7196 24.3037C34.8465 24.272 35.0156 24.2561 35.2269 24.2561C35.8188 24.2561 36.2257 24.1557 36.4477 23.9549C36.6696 23.7541 36.7912 23.4846 36.8123 23.1463C36.8335 22.8081 36.844 22.4594 36.844 22.1V14.2683C36.844 13.8878 36.8335 13.5337 36.8123 13.2061C36.7912 12.8785 36.6696 12.6142 36.4477 12.4134C36.2257 12.2126 35.8188 12.1122 35.2269 12.1122C35.0156 12.1122 34.8465 12.0963 34.7196 12.0646C34.5928 12.0329 34.5188 11.8585 34.4977 11.5415C34.4977 11.3724 34.54 11.2244 34.6245 11.0976C34.7091 10.9707 34.8359 10.9073 35.005 10.9073C35.618 10.9285 36.1782 10.9496 36.6855 10.9707C37.1928 10.9919 37.7318 11.0024 38.3026 11.0024C38.8522 11.0024 39.3489 10.9919 39.7928 10.9707C40.2367 10.9496 40.7546 10.9285 41.3465 10.9073C41.5156 10.9073 41.6424 10.9707 41.7269 11.0976C41.8115 11.2244 41.8538 11.3724 41.8538 11.5415C41.8326 11.8585 41.7534 12.0329 41.616 12.0646C41.4786 12.0963 41.3253 12.1122 41.1562 12.1122C40.6489 12.0911 40.3001 12.165 40.1099 12.3341C39.9196 12.5033 39.8192 12.7516 39.8087 13.0793C39.7981 13.4069 39.7822 13.8033 39.7611 14.2683V21.7195L45.7855 13.5073C46.631 12.4504 47.355 11.774 47.9574 11.478C48.5599 11.1821 49.0936 11.013 49.5587 10.9707L50.9538 10.9073C51.1229 10.9073 51.2497 10.9707 51.3343 11.0976C51.4188 11.2244 51.4611 11.3724 51.4611 11.5415C51.44 11.8585 51.3607 12.0329 51.2233 12.0646C51.0859 12.0963 50.9221 12.1122 50.7318 12.1122C50.14 12.1122 49.733 12.2126 49.5111 12.4134C49.2891 12.6142 49.1623 12.8785 49.1306 13.2061C49.0989 13.5337 49.083 13.8878 49.083 14.2683V22.1C49.083 22.4594 49.0989 22.8081 49.1306 23.1463C49.1623 23.4846 49.2891 23.7541 49.5111 23.9549C49.733 24.1557 50.14 24.2561 50.7318 24.2561C50.9221 24.2561 51.0859 24.272 51.2233 24.3037C51.3607 24.3354 51.44 24.5098 51.4611 24.8268C51.4611 24.9748 51.4188 25.1175 51.3343 25.2549C51.2497 25.3923 51.1229 25.461 50.9538 25.461C50.3408 25.4187 49.7806 25.3923 49.2733 25.3817C48.766 25.3711 48.2269 25.3659 47.6562 25.3659C47.1066 25.3659 46.6099 25.3711 46.166 25.3817C45.7221 25.3923 45.1936 25.4187 44.5806 25.461C44.4326 25.461 44.3164 25.3923 44.2318 25.2549C44.1473 25.1175 44.105 24.9748 44.105 24.8268C44.1261 24.5098 44.2001 24.3354 44.3269 24.3037C44.4538 24.272 44.6123 24.2561 44.8026 24.2561C45.3099 24.2772 45.6587 24.2033 45.8489 24.0341C46.0391 23.865 46.1448 23.6167 46.166 23.289C46.1871 22.9614 46.1977 22.565 46.1977 22.1V15.061L40.1416 23.2098C39.5286 23.9919 38.8997 24.5415 38.255 24.8585C37.6103 25.1756 37.0448 25.3553 36.5587 25.3976C36.305 25.4187 36.0513 25.4346 35.7977 25.4451C35.544 25.4557 35.2798 25.461 35.005 25.461Z" fill="#26292C"/>
  <g clip-path="url(#logo-leaf-clip)">
    <path d="M39.9877 7.2995C40.9531 3.43791 44.332 1.02441 49.2555 0.445175C47.9523 5.3687 44.332 8.02355 39.9877 7.2995Z" fill="#56634B"/>
    <path d="M40.2443 6.86718C39.3636 7.28906 38.4496 7.66218 37.5022 7.98651C37.4081 8.05886 37.4034 8.14574 37.4881 8.24715C37.5658 8.30081 37.6457 8.31022 37.7279 8.27541C38.6282 7.98724 39.4531 7.66135 40.2027 7.29772L40.2443 6.86718Z" fill="#56634B"/>
  </g>
  <defs>
    <clipPath id="logo-leaf-clip">
      <rect width="12.2606" height="8.0128" fill="white" transform="translate(37.188 0.25209)"/>
    </clipPath>
  </defs>
</svg>
